<?xml version="1.0" encoding="UTF-8" standalone="no"?>
<!-- Created with Inkscape (http://www.inkscape.org/) -->

<svg
   xmlns:dc="http://purl.org/dc/elements/1.1/"
   xmlns:cc="http://creativecommons.org/ns#"
   xmlns:rdf="http://www.w3.org/1999/02/22-rdf-syntax-ns#"
   xmlns:svg="http://www.w3.org/2000/svg"
   xmlns="http://www.w3.org/2000/svg"
   xmlns:sodipodi="http://sodipodi.sourceforge.net/DTD/sodipodi-0.dtd"
   xmlns:inkscape="http://www.inkscape.org/namespaces/inkscape"
   version="1.1"
   id="svg3694"
   width="433.33334"
   height="346.66666"
   viewBox="0 0 433.33334 346.66666"
   sodipodi:docname="Logo Ngo final.svg"
   inkscape:version="0.92.1 r15371"
   inkscape:export-filename="C:\Documents and Settings\Mir\Desktop\Logo Ngo png.png"
   inkscape:export-xdpi="96"
   inkscape:export-ydpi="96">
  <metadata
     id="metadata3700">
    <rdf:RDF>
      <cc:Work
         rdf:about="">
        <dc:format>image/svg+xml</dc:format>
        <dc:type
           rdf:resource="http://purl.org/dc/dcmitype/StillImage" />
        <dc:title></dc:title>
      </cc:Work>
    </rdf:RDF>
  </metadata>
  <defs
     id="defs3698" />
  <sodipodi:namedview
     pagecolor="#ffffff"
     bordercolor="#666666"
     borderopacity="1"
     objecttolerance="10"
     gridtolerance="10"
     guidetolerance="10"
     inkscape:pageopacity="0"
     inkscape:pageshadow="2"
     inkscape:window-width="1440"
     inkscape:window-height="844"
     id="namedview3696"
     showgrid="false"
     showguides="true"
     inkscape:zoom="1.6214386"
     inkscape:cx="205.46256"
     inkscape:cy="161.60691"
     inkscape:window-x="-4"
     inkscape:window-y="-4"
     inkscape:window-maximized="1"
     inkscape:current-layer="svg3694">
    <sodipodi:guide
       position="-612,649.00001"
       orientation="0,1"
       id="guide4578"
       inkscape:locked="false" />
    <sodipodi:guide
       position="-612,651.00001"
       orientation="0,1"
       id="guide4580"
       inkscape:locked="false" />
    <sodipodi:guide
       position="-611.99999,651.00002"
       orientation="0,1"
       id="guide4582"
       inkscape:locked="false" />
  </sodipodi:namedview>
  <rect
     style="fill:#550000;fill-opacity:1;stroke:none;stroke-width:1.47065938"
     id="rect147-0-4"
     width="290.28516"
     height="277.88052"
     x="72.204865"
     y="15.685438"
     ry="138.94026" />
  <rect
     style="fill:#ffffff;fill-opacity:1;stroke:none;stroke-width:1.35086846"
     id="rect147-0"
     width="266.1434"
     height="255.72258"
     x="84.275757"
     y="26.76442"
     ry="127.86129" />
  <path
     style="fill:#ff9933;fill-opacity:1;stroke:none;stroke-width:0.47538841"
     d="m 249.84405,91.084378 c 8.7414,0.0146 24.28657,3.43922 36.95156,8.65336 l 15.5297,6.415462 c -9.04421,-3.67876 -39.12666,-9.362362 -49.34321,-9.374942 -31.82316,0.0242 -38.2814,35.854422 -42.40631,63.613092 0,0 -0.2014,-2.15743 -0.3552,-3.79779 -0.61831,-3.55722 -1.85717,-6.99642 -3.67739,-10.19075 -6.35963,-14.0783 -23.9904,-33.44913 -40.41353,-22.14256 0,0 -11.77872,8.43522 -12.02206,8.56051 l -2.44201,1.66964 c 1.68636,-1.14456 14.77874,-13.04316 17.86333,-14.76077 17.6249,-9.99837 28.81162,2.51788 37.87876,18.29693 0.9864,1.72546 1.77196,3.52776 2.36888,5.38022 1.98432,-26.54553 5.28109,-52.322402 40.06748,-52.322402 z m 76.87667,95.113712 c -0.15798,0.14827 -0.31646,0.29617 -0.47665,0.44308 0.11486,-0.14713 0.22928,-0.29503 0.34216,-0.44308 z"
     id="path3733-0-6-5-3"
     inkscape:connector-curvature="0" />
  <path
     style="fill:#138808;fill-opacity:1;stroke:none;stroke-width:0.50374937"
     d="m 268.12043,120.61996 c -46.65087,0 -51.07392,21.58184 -53.73501,43.8083 -0.8005,-1.55079 -1.8542,-3.06033 -3.17684,-4.50484 -12.15967,-13.21178 -27.16185,-23.69046 -50.79808,-15.31883 -4.13665,1.43814 -21.69267,11.40083 -23.9542,12.35916 l 3.27316,-1.39796 c 0.32632,-0.105 16.12242,-7.16771 16.12242,-7.16771 22.02457,-9.46696 45.67039,6.7522 54.1991,18.53995 2.43842,2.67175 4.09803,5.54821 4.92814,8.52328 0.20716,1.37952 0.47809,3.18813 0.47809,3.18813 5.53179,-23.2423 14.1945,-53.24171 56.87157,-53.26199 13.70112,0.0115 54.04204,4.7694 66.17095,7.84962 l -20.8264,-5.37167 c -16.98467,-4.36578 -37.83005,-7.23313 -49.5529,-7.24544 z m 102.91486,79.6386 c -0.15134,0.12394 -0.30478,0.24663 -0.45883,0.36982 0.21477,-0.12306 0.42911,-0.24567 0.64097,-0.36982 z"
     id="path3733-0-6-5-3-3"
     inkscape:connector-curvature="0" />
  <path
     style="fill:#006680;fill-opacity:1;stroke:none;stroke-width:1.25258708"
     d="m 133.20519,168.30014 c -10.58794,0.003 -22.30204,0.22263 -35.177567,0.71024 -0.923421,0.009 -1.848161,0.023 -2.770518,0.0375 l 0.372708,7.93533 c 0.922347,-0.0134 9.452347,-0.37797 10.375767,-0.38514 80.36187,-1.73306 98.3677,1.4458 100.44776,20.94496 l 6.39331,0.13253 c -0.007,0.0359 -0.008,0.0715 -0.0156,0.10757 h 5.22307 8.56177 c -0.10299,-19.85931 20.87039,-22.74054 101.23226,-21.00748 0.92343,0.007 7.22763,0.19413 8.14997,0.20757 l -0.3701,-7.93533 c -0.92236,-0.0146 -1.84449,-0.0285 -2.76792,-0.0375 -51.50203,-1.95046 -84.44214,0.35571 -100.91688,3.9514 -9.32921,2.03616 -14.09249,4.62332 -16.50063,7.5677 -2.40844,-2.94395 -7.17251,-5.53177 -16.50065,-7.5677 -12.35606,-2.69676 -33.97287,-4.66744 -65.73673,-4.66165 z"
     id="path177"
     inkscape:connector-curvature="0" />
  <text
     xml:space="preserve"
     style="font-style:normal;font-weight:normal;font-size:40px;line-height:1.25;font-family:sans-serif;letter-spacing:0px;word-spacing:0px;fill:#000000;fill-opacity:1;stroke:none"
     x="84.492874"
     y="307.19553"
     id="text26"><tspan
       sodipodi:role="line"
       id="tspan24"
       x="84.492874"
       y="343.68875" /></text>
  <path
     style="fill:#000000;fill-opacity:1;stroke:none;stroke-width:0.30836815"
     d="m 295.8934,306.50651 -0.79297,0.79101 -0.79102,0.79102 3,3.01172 c 1.65011,1.65633 3,3.11411 3,3.23828 0,0.12416 -7.77217,0.22461 -17.27344,0.22461 h -17.27539 l -5.58789,-2.77344 c -7.06437,-3.50826 -10.44816,-4.63162 -14.625,-4.85352 -3.62832,-0.19276 -5.67131,0.31254 -7.04101,1.74219 -0.88127,0.91985 -1.55002,3.06748 -1.26758,4.07031 0.09,0.31969 0.24169,0.85806 0.33789,1.19727 0.14242,0.50202 0.0292,0.61719 -0.61524,0.61719 -0.67408,0 -0.79296,0.13811 -0.79296,0.92578 0,0.9161 0.0184,0.92383 1.69726,0.92383 h 1.69531 v 8.32617 8.32617 h 1.08008 1.07813 v -8.32617 -8.32617 h 10.33008 10.33203 v 2.62109 2.62109 h -5.08985 -5.08789 v 1.08008 c 0,1.07029 0.0118,1.08008 1.36328,1.08008 1.79806,0 2.2727,0.21006 2.8125,1.25391 0.70436,1.36209 0.57699,3.18979 -0.29297,4.20117 -0.64882,0.7543 -0.96418,0.86523 -2.45312,0.86523 -1.57163,0 -1.80595,-0.0965 -2.94922,-1.21289 -0.68331,-0.66724 -1.54361,-1.93593 -1.91016,-2.82031 -0.64798,-1.56338 -0.68996,-1.5995 -1.54687,-1.30078 -0.48473,0.16898 -0.88086,0.4359 -0.88086,0.59375 0,0.72013 1.94649,4.03347 2.93164,4.99023 2.70454,2.62661 7.61034,2.07682 9.16992,-1.02734 0.66161,-1.3168 0.68847,-2.74239 0.0781,-4.20313 -0.2544,-0.60887 -0.46289,-1.16051 -0.46289,-1.2246 0,-0.0641 0.97098,-0.11524 2.1582,-0.11524 h 2.16016 v 4.625 4.625 h 1.23242 1.23437 v -8.32617 -8.32617 h 5.39649 5.39648 v 3.39258 3.39257 h -1.61914 c -2.84851,0.002 -4.6638,1.66081 -4.625,4.22657 0.036,2.38167 1.52575,3.77615 4.03906,3.78515 1.59707,0.005 3.1239,-0.65552 3.72461,-1.61328 0.23938,-0.38165 0.51499,-1.52731 0.61328,-2.54492 l 0.17969,-1.84961 3.62305,-0.0859 3.62305,-0.0879 v -0.91601 -0.91407 h -3.70118 -3.69921 v -3.39257 -3.39258 h 7.24609 7.24609 v 3.39258 3.39257 h -1.39648 c -1.77141,0 -3.34375,0.65068 -4.00391,1.65821 -0.79699,1.21636 -0.91971,3.01362 -0.29687,4.32617 0.7465,1.57313 1.95724,2.13277 4.25195,1.96679 2.53967,-0.18371 3.45669,-1.17896 3.76758,-4.08203 l 0.21875,-2.04101 2.9707,0.0879 2.96875,0.0879 0.0859,3.93164 0.0879,3.93164 h 1.06836 1.07031 v -8.32617 -8.32617 h 6.47656 6.47461 v 1.65234 1.65039 l -2.13086,0.17969 c -2.17915,0.18269 -4.08436,0.93009 -5.02539,1.9707 -2.06672,2.28543 -1.9223,7.11984 0.27344,9.10547 2.07912,1.88016 6.11833,1.96961 8.03125,0.17773 l 0.6836,-0.64062 0.27929,0.73828 c 0.15377,0.40629 0.46215,1.55057 0.6836,2.54297 l 0.40234,1.80664 1.06055,-0.17383 c 0.58379,-0.0947 1.10379,-0.21317 1.15429,-0.26367 0.082,-0.082 -2.03533,-8.58497 -2.19531,-8.81641 -0.20441,-0.29573 -2.12272,0.52845 -2.04102,0.87696 0.21286,0.90777 -0.29084,1.74813 -1.4375,2.39258 -3.24908,1.82609 -6.59847,-0.29758 -6.0664,-3.84571 0.40482,-2.69949 2.3832,-3.80078 6.82226,-3.80078 h 1.64063 l 0.0898,-2.69922 0.0899,-2.69726 3.46875,-0.0879 3.46875,-0.0879 v 8.33593 8.33594 h 1.08008 1.07812 v -8.32422 -8.32617 h 5.08789 5.08789 v 2.93945 c 0,3.71749 -0.4845,5.07813 -1.80859,5.07813 -0.64135,0 -1.10141,-0.25334 -1.53907,-0.84766 -0.50616,-0.68734 -0.72683,-0.78618 -1.1621,-0.51953 -1.40989,0.8637 -1.29501,1.08726 3.26757,6.40039 l 4.40235,5.12695 0.83984,-0.68554 c 0.97312,-0.79392 1.21339,-0.33653 -2.42187,-4.64063 -1.25246,-1.48289 -2.22341,-2.72667 -2.15821,-2.76367 0.0652,-0.037 0.53416,-0.27893 1.04297,-0.53906 1.28954,-0.65928 1.65919,-1.99643 1.67969,-6.08985 l 0.0176,-3.48046 3.46875,0.0879 3.46875,0.0879 0.082,8.24804 0.082,8.24805 h 1.07422 1.07422 v -8.32422 -8.32617 h 1.84961 1.85156 v -0.92578 -0.92578 l -2.23633,-0.002 -2.23633,-0.004 -1.22851,-1.92383 c -2.76214,-4.32247 -5.16716,-6.02447 -8.05274,-5.69922 -1.81933,0.20506 -2.93785,1.03718 -3.49023,2.59961 -0.43889,1.24143 -0.30359,2.06926 0.73437,4.49023 0.21871,0.51016 -0.67907,0.53907 -16.41015,0.53907 H 303.1726 l -3.64062,-4.0293 z M 87.608241,306.7819 c -3.148196,0.0396 -5.384309,0.93884 -6.734375,2.70898 -0.77529,1.01653 -0.890593,1.42539 -0.871093,3.1211 0.01944,1.69061 -0.05205,1.95117 -0.539063,1.95117 -0.418958,0 -0.5625,0.23624 -0.5625,0.92578 0,0.9045 0.03539,0.92383 1.542969,0.92383 h 1.541015 v 8.32617 8.32617 h 1.234376 1.232421 v -8.32617 -8.32617 h 1.84961 1.851562 v -0.92383 -0.92578 h -2.603515 c -2.34096,0 -2.652379,-0.0693 -3.083985,-0.68555 -0.603399,-0.86147 -0.606035,-1.56752 -0.01172,-2.7168 1.35005,-2.61071 7.154846,-3.06628 12.179688,-0.95507 1.15632,0.48584 3.224951,1.62498 4.595701,2.52929 2.281728,1.5053 2.492188,1.72862 2.492188,2.66016 0,0.92501 0.0829,1.01758 0.92383,1.01758 h 0.92578 v 8.32617 8.32617 h 1.08008 1.07812 v -8.32617 -8.32617 h 1.85157 1.84961 v -0.92383 -0.92578 h -2.31446 -2.3125 l -2.54297,-2.01367 c -2.815908,-2.23002 -7.792869,-4.81865 -10.408199,-5.41407 -0.932814,-0.21237 -2.842042,-0.37111 -4.244141,-0.35351 z m 121.027339,0.11718 c -1.97176,-0.0618 -3.73533,0.89753 -4.24414,2.78711 -0.33002,1.22558 -0.16586,2.14249 0.77539,4.33789 0.21926,0.51145 -1.08436,0.53907 -24.93359,0.53907 h -25.16406 v 0.92578 0.92383 h 4.16211 4.16406 v 1.38867 1.38672 h -2.01563 c -1.10786,0 -2.49172,0.20112 -3.07617,0.44531 -1.22453,0.51164 -2.30659,2.08803 -2.30859,3.36328 -0.002,1.23838 0.81661,2.81344 1.70898,3.29102 0.86484,0.46285 0.92663,0.82376 0.28516,1.67187 -0.69319,0.91647 -0.55713,3.07068 0.30078,4.76367 0.42681,0.84227 1.59554,2.23739 2.69727,3.21875 1.06964,0.95278 2.02544,1.73524 2.12304,1.74024 0.0976,0.005 0.48163,-0.31509 0.85352,-0.71094 l 0.67578,-0.7207 -1.89844,-1.65039 c -2.2122,-1.92411 -3.21253,-3.7912 -2.90625,-5.42383 0.24723,-1.31784 0.99968,-1.79464 3.62695,-2.29883 1.57472,-0.30223 2.25572,-0.31284 2.84376,-0.0449 0.99678,0.45416 1.31725,1.68926 0.6875,2.65039 -0.44783,0.68346 -0.43342,0.77511 0.23632,1.4043 l 0.7168,0.67382 0.6543,-1.05664 c 1.18797,-1.92218 0.61904,-4.36369 -1.24219,-5.32617 -1.07734,-0.55712 -3.26223,-0.62036 -4.88672,-0.14062 -1.67362,0.49426 -2.82396,0.38262 -3.60547,-0.35157 -0.83042,-0.78014 -0.90905,-1.68826 -0.23242,-2.65429 0.44633,-0.63725 0.71591,-0.68555 3.85352,-0.68555 h 3.375 v -2.4668 -2.46679 h 6.16796 6.16602 v 3.39258 3.39257 h -1.39648 c -2.83253,0 -4.4669,1.26925 -4.69532,3.64649 -0.26432,2.75079 1.25103,4.37109 4.08789,4.37109 1.64161,0 3.05419,-0.63589 3.60743,-1.62305 0.21288,-0.37985 0.45992,-1.5234 0.54882,-2.54101 l 0.16016,-1.84961 h 2.92969 2.92969 l 0.0859,3.93164 0.0879,3.93164 h 1.22266 1.22461 v -8.32617 -8.32617 h 2.62109 2.6211 v 8.32617 8.32617 h 1.08007 1.07813 v -8.32617 -8.32617 h 5.08984 5.08789 l -0.006,3.16211 c -0.005,3.65781 -0.34946,4.65323 -1.66601,4.80468 -0.67302,0.0774 -1.05695,-0.1088 -1.5918,-0.77148 -0.57091,-0.70736 -0.80673,-0.81151 -1.24414,-0.54492 -1.41383,0.86169 -1.29987,1.08906 3.25781,6.39648 l 4.39649,5.11914 0.88281,-0.65234 c 1.03294,-0.76368 1.20774,-0.42847 -2.45312,-4.69922 -1.25252,-1.46119 -2.22351,-2.68761 -2.15821,-2.72461 0.0653,-0.037 0.53417,-0.28088 1.04297,-0.54102 1.28887,-0.65892 1.65919,-1.99464 1.67969,-6.07812 l 0.0176,-3.4707 h 3.54492 3.54687 v 8.32617 8.32617 h 1.08008 1.07813 v -8.32617 -8.32617 h 1.84961 c 1.84421,0 1.85156,-0.002 1.85156,-0.91016 v -0.91211 l -2.23242,-0.0918 -2.23438,-0.0898 -1.48047,-2.1582 c -0.81446,-1.18721 -1.98808,-2.67789 -2.60742,-3.3125 -1.29312,-1.32498 -2.95273,-1.99099 -4.48633,-2.03907 z m 131.10547,2.11719 c 0.72047,0.0141 1.49452,0.24517 2.13281,0.68946 0.93495,0.65076 3.75668,4.1195 3.76368,4.62695 0.002,0.1272 -1.53087,0.23047 -3.4043,0.23047 h -3.40625 l -0.75391,-1.61914 c -0.91704,-1.96973 -0.94022,-2.51681 -0.14257,-3.31446 0.42353,-0.42352 1.09007,-0.62736 1.81054,-0.61328 z m -130.97265,0.0215 c 0.6812,0.0396 1.40699,0.24902 2.00585,0.61914 0.89723,0.55452 3.8086,4.15915 3.8086,4.71484 0,0.10562 -1.52259,0.19141 -3.38477,0.19141 h -3.38672 l -0.65429,-1.28321 c -0.84956,-1.66528 -0.90393,-3.27456 -0.13086,-3.83984 0.42484,-0.31065 1.06098,-0.44191 1.74219,-0.40234 z m 36.0625,0.17187 c 1.59892,0.0269 3.39558,0.25371 4.96289,0.67383 2.56478,0.6875 9.70591,3.52772 10.63086,4.22852 0.4915,0.37235 -0.82621,0.4334 -9.63672,0.4414 -9.34071,0.009 -10.24597,-0.0354 -10.67969,-0.5293 -1.29433,-1.47397 -0.86897,-3.39678 0.94727,-4.2871 0.77652,-0.38065 2.17646,-0.55427 3.77539,-0.52735 z m -150.496098,4.50391 c -1.146838,-0.0539 -2.312912,0.26661 -3.29492,1.01562 -2.658343,2.02762 -1.696857,6.31055 1.416016,6.31055 1.181307,0 1.248046,-0.0503 1.248046,-0.92578 0,-0.7081 -0.140493,-0.92578 -0.595703,-0.92578 -0.763648,0 -1.5625,-0.79885 -1.5625,-1.5625 0,-0.94411 1.106929,-1.82813 2.289063,-1.82813 1.250798,0 2.689718,1.08667 3.259768,2.46289 0.877361,2.11813 -0.22606,5.44256 -2.19141,6.60352 -1.210241,0.71491 -1.816227,0.61334 -2.962889,-0.49805 l -1.021485,-0.99023 -0.773437,0.77343 -0.773438,0.77344 4.041016,4.37891 c 2.222323,2.40903 4.123833,4.38086 4.226563,4.38086 0.10273,0 0.505231,-0.30029 0.894531,-0.66602 l 0.70899,-0.66406 -2.324221,-2.55859 -2.32227,-2.5586 1.21094,-0.61718 c 1.37137,-0.69962 2.725761,-2.17717 3.339841,-3.64258 0.60362,-1.44045 0.51505,-4.61491 -0.16992,-6.12305 -0.87177,-1.91945 -2.731181,-3.04886 -4.642581,-3.13867 z m 21.017578,0.0508 c -2.08705,0.13714 -4.07227,1.70955 -4.07227,4.0625 0,1.60054 0.64315,3.03854 1.58204,3.54102 0.62664,0.33537 0.59909,0.39932 -0.78321,1.80273 -1.70094,1.72689 -2.20546,3.1682 -1.72851,4.93945 0.89812,3.33538 4.82168,4.4569 6.79882,1.94336 l 0.60547,-0.76953 0.41211,1.04297 c 0.22751,0.57333 0.65206,1.69085 0.94336,2.48437 0.5272,1.43612 0.53505,1.44195 1.51563,1.11133 0.5418,-0.18268 1.02206,-0.36128 1.06836,-0.39648 0.0787,-0.06 -2.70244,-7.89141 -2.88477,-8.12305 -0.0461,-0.0585 -0.51031,-0.0129 -1.03125,0.10156 -0.85715,0.18826 -0.94726,0.32069 -0.94726,1.39453 0,0.91462 -0.18623,1.33356 -0.8125,1.82618 -1.68976,1.32917 -3.50391,0.28175 -3.50391,-2.02344 0,-1.15031 0.16797,-1.48549 1.29492,-2.56836 l 1.29492,-1.24414 h 5.79688 5.79687 v 5.08789 5.08789 h 1.08008 1.08008 v -8.32617 -8.32617 h 2.77539 2.77344 v 8.32617 8.32617 h 1.08008 1.08007 v -8.32617 -8.32617 h 1.84961 1.84961 v -0.92383 -0.92578 h -9.25 -9.25195 v 0.92578 0.92383 h 2.48047 2.48047 l -0.0898,2.23632 -0.0918,2.23633 -3.93164,0.0859 c -2.16243,0.0475 -3.93164,0.008 -3.93164,-0.0879 0,-0.0958 0.19692,-0.48178 0.4375,-0.85742 0.86919,-1.35726 0.72872,-3.58826 -0.30469,-4.81641 -0.91913,-1.09231 -2.20871,-1.5276 -3.46094,-1.44531 z m 0.0566,2.0332 c 2.02066,0 2.9086,2.58007 1.42969,4.1543 -0.92127,0.9806 -1.67795,0.98611 -2.64258,0.0215 -1.45456,-1.45456 -0.6642,-4.17578 1.21289,-4.17578 z m 179.34961,0.59375 3.00781,0.0879 3.00586,0.0879 v 3.23829 3.23828 l -3.00586,0.0879 -3.00781,0.0879 v -3.41406 z m -114.4043,0.0215 h 3.08399 3.08398 v 3.39258 3.39257 h -3.08398 -3.08399 v -3.39257 z m -3.04882,8.72461 c 0.27965,-0.009 0.49993,0.0134 0.60156,0.0762 0.56194,0.3473 0.32653,2.88049 -0.32813,3.53515 -0.8962,0.89621 -2.27875,0.79748 -3.07812,-0.21875 -0.71551,-0.90963 -0.63981,-2.1269 0.17187,-2.75 0.40821,-0.31336 1.79386,-0.61651 2.63282,-0.64257 z m 98.18164,0.0645 -0.0156,1.6543 c -0.0115,1.25583 -0.15682,1.75825 -0.59961,2.08203 -1.43232,1.04734 -3.54883,0.0434 -3.54883,-1.6836 0,-1.2246 0.81982,-1.8362 2.6211,-1.95312 z m 16.65039,0 0.0937,1.5918 c 0.079,1.36255 -0.009,1.65984 -0.60938,2.08007 -1.5557,1.08966 -3.33789,0.25361 -3.33789,-1.5664 0,-1.23952 0.78343,-1.87596 2.4668,-2.00195 z"
     id="path28"
     inkscape:connector-curvature="0" />
  <path
     style="fill:#ff6600;fill-opacity:1;stroke:none;stroke-width:0.15418407"
     d="m 241.74554,224.89758 -0.61523,0.002 -6.47656,14.44336 c -3.56165,7.94437 -6.73329,15.02074 -7.04688,15.72461 l -0.56836,1.2793 h 2.58985 2.58984 l 1.29492,-3.31641 1.29492,-3.31445 6.55274,0.0391 6.55273,0.0391 1.17969,3.23828 1.18164,3.23828 2.57617,0.041 c 2.41233,0.0397 2.56971,0.0257 2.47461,-0.23047 -0.0559,-0.1505 -2.99441,-7.22825 -6.53125,-15.72852 l -6.43164,-15.45507 z m 36.92969,0.30273 -0.0391,10.79883 -0.041,10.79883 -8.78711,-10.79297 -8.78906,-10.79492 -0.88672,-0.004 -0.88672,-0.004 v 15.57618 15.57617 l 2.19727,-0.043 2.19727,-0.041 0.0781,-11.13281 0.0762,-11.13281 8.94336,11.3164 8.94141,11.31641 0.73242,0.008 0.73242,0.008 v -15.72657 -15.72656 h -2.23437 z m -117.57422,0.002 -3.21875,15.37891 c -1.76969,8.45892 -3.24976,15.46627 -3.28906,15.57227 -0.055,0.14853 0.43771,0.19336 2.15234,0.19336 h 2.22461 l 1.96094,-9.75196 c 1.07857,-5.36368 2.01383,-9.88192 2.07813,-10.04101 0.0879,-0.21735 0.29207,0.16507 0.81836,1.54101 0.38521,1.0071 2.14234,5.59484 3.90625,10.19531 l 3.20703,8.36524 h 0.5664 0.56836 l 3.74414,-10.06055 c 2.06016,-5.53328 3.79422,-10.11353 3.85352,-10.17773 0.0593,-0.0642 1.03943,4.39358 2.17773,9.90625 l 2.07032,10.02344 h 2.21093 c 2.03337,0 2.20321,-0.0214 2.12891,-0.26954 -0.0445,-0.1484 -1.61232,-7.03461 -3.48438,-15.30273 -1.87206,-8.26812 -3.44102,-15.15433 -3.48632,-15.30273 -0.0671,-0.21982 -0.26369,-0.26954 -1.05664,-0.26954 h -0.97266 l -1.68945,4.97266 c -0.92886,2.73484 -2.65395,7.83257 -3.83399,11.33008 -1.18004,3.49752 -2.18527,6.36086 -2.23437,6.36133 -0.0491,5.3e-4 -1.95505,-5.09915 -4.23438,-11.33203 l -4.14453,-11.33204 h -1.01172 z m 32,0 v 15.57227 15.57227 h 2.3125 2.3125 v -15.57232 -15.57227 h -2.3125 z m 12.79688,0 v 15.57227 15.57227 h 10.17578 10.17773 v -1.84961 -1.85157 h -7.86328 -7.86328 v -13.72265 -13.72071 h -2.31445 z m 35.58594,7.83204 c 0.10474,-0.10502 4.96979,13.17867 4.96679,13.56054 -10e-4,0.15033 -1.13952,0.19336 -5.16797,0.19336 -3.27259,0 -5.16406,-0.0565 -5.16406,-0.15234 0,-0.20622 5.23065,-13.46664 5.36524,-13.60156 z"
     id="path52"
     inkscape:connector-curvature="0" />
</svg>
